<svg version="1.1" id="Layer_1" xmlns="http://www.w3.org/2000/svg" xmlns:xlink="http://www.w3.org/1999/xlink" x="0px" y="0px"
	 width="100%" viewBox="0 0 1024 1024" enable-background="new 0 0 1024 1024" xml:space="preserve">
<path fill="#000000" opacity="1.000000" stroke="none" 
	d="
M684.942932,696.972717 
	C643.288879,726.389771 597.575989,744.961609 547.677368,753.426025 
	C530.592712,756.324097 513.416077,757.582336 496.113312,758.426941 
	C464.742401,759.958191 442.659424,775.613586 431.628510,809.569153 
	C429.103180,817.342590 427.584564,825.342285 427.304260,833.545593 
	C427.271667,834.498657 427.496094,835.573914 426.214417,836.445923 
	C425.808899,836.284668 425.076477,836.210388 424.683655,835.806091 
	C407.822510,818.456116 392.945709,799.836304 385.752380,776.139465 
	C377.962982,750.479004 383.243103,727.892212 401.111084,708.042664 
	C409.531372,698.688416 420.008911,691.727417 429.327911,683.422424 
	C439.557983,674.305359 449.401093,664.830383 456.336121,652.831543 
	C472.477081,624.904724 468.391113,591.995056 446.581726,568.226257 
	C430.139435,550.306763 409.618896,538.375916 388.637573,527.003418 
	C379.743774,522.182739 370.636871,517.755249 361.628601,513.149963 
	C362.015839,510.495605 364.124634,509.837189 365.698975,508.830353 
	C390.679443,492.854218 416.037415,477.464691 440.547272,460.760071 
	C443.694153,458.615326 446.031982,458.881012 449.022522,461.046753 
	C478.234039,482.201691 498.843658,509.790558 511.106049,543.647583 
	C517.858154,562.290466 523.378906,581.306335 525.568115,601.053467 
	C529.009216,632.094421 525.702576,662.475525 515.478821,692.072266 
	C512.827515,699.747559 510.215820,707.431274 506.696259,715.165649 
	C511.059052,716.641235 515.054688,715.856995 518.855591,715.454895 
	C545.620605,712.623291 571.552185,706.318420 596.646118,696.501404 
	C630.183960,683.381104 660.608582,665.281189 687.410095,641.096741 
	C727.055054,605.322998 754.069641,561.865967 767.971497,510.261993 
	C777.591431,474.552551 779.429932,438.414032 774.255371,401.868713 
	C766.629944,348.013885 743.628723,301.360321 708.050415,260.583099 
	C673.232971,220.677963 629.535767,194.611206 579.655334,178.278244 
	C572.895752,176.064880 565.745728,175.004517 558.737793,173.603516 
	C554.433533,172.743011 552.196289,175.065521 551.398010,179.117874 
	C547.031433,201.284622 542.729004,223.464279 538.270020,245.612442 
	C530.296082,285.219360 520.485474,324.309845 500.294281,359.767303 
	C478.281250,398.424072 446.845856,427.790405 408.977142,450.829956 
	C382.529907,466.920563 355.112030,481.499878 330.248657,500.123383 
	C323.838654,504.924744 317.944305,510.341309 312.402740,516.117615 
	C308.399170,520.290833 308.705261,521.208984 313.479431,524.327698 
	C350.632690,548.597656 390.417480,568.292725 428.647675,590.687256 
	C434.106201,593.884766 439.190308,597.762024 444.786743,600.672791 
	C451.213257,604.015381 452.634766,609.582886 453.192566,615.945190 
	C454.420532,629.950256 449.683289,642.148071 441.983826,653.458130 
	C435.197327,663.427124 426.854889,672.040161 418.271790,680.435181 
	C416.477509,682.190125 414.607513,683.304260 412.112885,681.516663 
	C396.087769,670.032654 378.250793,661.573486 361.526855,651.264038 
	C339.847107,637.899658 317.117310,626.200684 297.049988,610.264526 
	C274.516632,592.370056 257.830109,570.299133 249.622818,542.599854 
	C238.875961,506.329651 247.729660,474.233673 272.133087,445.980988 
	C286.747681,429.061188 305.236877,417.149109 324.433075,406.299377 
	C354.748199,389.165192 385.304718,372.436371 413.392975,351.696533 
	C440.943268,331.353943 461.850616,305.213379 478.828430,275.763580 
	C491.226257,254.258148 499.408691,231.015564 506.045776,207.216034 
	C511.411621,187.975143 516.325562,168.608643 521.605408,149.343185 
	C525.502747,135.122345 537.549927,128.007904 552.206787,130.112350 
	C579.523926,134.034576 605.004639,143.757767 630.121094,154.475128 
	C658.053650,166.394135 683.028564,183.092072 706.342651,202.555740 
	C739.856323,230.534439 766.340759,263.969971 785.905640,302.864929 
	C803.597229,338.035919 814.580811,375.354004 817.839111,414.564240 
	C824.120483,490.154877 805.060242,559.092468 761.583496,621.287476 
	C740.730713,651.118347 715.200989,676.173767 684.942932,696.972717 
z"/>
<path fill="#000000" opacity="1.000000" stroke="none" 
	d="
M371.749908,304.137024 
	C384.096405,310.238464 396.178558,316.052948 407.898102,324.633270 
	C400.672913,329.171783 394.407013,333.149506 388.100403,337.061554 
	C368.433777,349.261047 348.687744,361.334503 329.125610,373.699066 
	C324.832947,376.412323 321.573029,376.873901 317.016174,373.899353 
	C300.798370,363.312836 284.488220,353.009277 273.508362,336.336700 
	C248.011795,297.620911 246.330734,252.086655 274.026398,212.309555 
	C288.000702,192.239410 306.434113,176.996124 326.691833,163.974487 
	C349.937531,149.032150 373.902374,135.212616 397.259949,120.439087 
	C415.157928,109.118690 432.083893,96.477341 446.184418,80.405243 
	C458.443054,66.432549 465.357056,50.179756 467.774475,31.869465 
	C467.979309,30.318027 467.385681,28.425016 469.284546,27.412722 
	C471.387817,27.528471 471.890015,29.365877 472.659790,30.730310 
	C487.440582,56.929298 497.875397,84.411888 496.021179,115.144852 
	C494.584229,138.962006 485.817566,160.154129 470.993774,178.711731 
	C451.939606,202.565186 427.022644,219.112427 400.943207,234.218201 
	C382.504608,244.898209 364.264526,255.918213 345.631104,266.266937 
	C338.779999,270.071960 332.428925,274.665161 326.551117,279.883209 
	C325.440338,280.869293 324.049347,281.606720 324.018524,284.266724 
	C339.613464,290.741821 355.843872,296.598206 371.749908,304.137024 
z"/>
<path fill="#000000" opacity="1.000000" stroke="none" 
	d="
M715.897949,401.690765 
	C730.870422,401.741943 737.087158,407.945557 737.096680,422.345520 
	C737.104187,433.839569 737.141846,445.333588 737.134155,456.827637 
	C737.124756,470.973969 730.029846,478.230408 716.005737,478.236572 
	C655.703064,478.263123 595.400391,478.216736 535.097717,478.261627 
	C527.267029,478.267456 520.830627,475.721130 515.940247,469.427246 
	C510.731018,462.723022 505.247711,456.229553 500.114960,449.468750 
	C494.830658,442.508301 495.066620,435.772308 500.468048,428.955078 
	C505.430542,422.691833 510.469604,416.488495 515.379944,410.184784 
	C519.876221,404.412445 525.512695,401.599182 533.006714,401.614563 
	C593.809021,401.739441 654.611633,401.688507 715.897949,401.690765 
z"/>
<path fill="#000000" opacity="1.000000" stroke="none" 
	d="
M642.000000,381.039520 
	C612.173035,381.015961 582.846130,380.993347 553.519165,380.968445 
	C550.005432,380.965454 546.548096,380.876404 543.421570,378.828369 
	C538.180420,375.395233 536.515930,370.415039 538.913025,364.639160 
	C541.848755,357.565430 544.814209,350.503937 547.790955,343.447357 
	C550.437195,337.174316 554.738831,333.858704 561.996582,333.884491 
	C610.652161,334.057281 659.308594,334.011932 707.964722,333.980011 
	C711.729553,333.977539 715.246765,334.587463 718.501953,336.501740 
	C723.199768,339.264343 725.683411,344.429749 724.350586,349.628693 
	C722.616455,356.393127 720.778564,363.149689 718.556091,369.765472 
	C715.849548,377.822388 710.430725,381.461700 701.985046,381.418884 
	C682.156555,381.318329 662.328308,381.169220 642.000000,381.039520 
z"/>
<path fill="#000000" opacity="1.000000" stroke="none" 
	d="
M632.000000,545.000488 
	C609.674744,544.994446 587.849548,544.996460 566.024292,544.979248 
	C552.224304,544.968384 548.454834,542.220276 544.324280,529.272644 
	C542.655090,524.040588 540.836304,518.853088 539.295837,513.583801 
	C536.843994,505.197113 541.919006,498.562347 550.712280,498.524078 
	C585.693787,498.371826 620.675171,498.225830 655.656738,498.103638 
	C666.754456,498.064880 671.039795,501.136658 674.203491,511.681885 
	C676.066833,517.892761 678.258911,524.024231 679.252319,530.478027 
	C680.484009,538.479858 676.773926,544.016663 668.462891,544.523987 
	C657.340149,545.203125 646.156555,544.886353 634.999084,544.995605 
	C634.166138,545.003723 633.333008,544.999207 632.000000,545.000488 
z"/>
<path fill="#000000" opacity="1.000000" stroke="none" 
	d="
M739.407715,957.401733 
	C725.901917,969.790588 710.866882,970.900940 690.938599,960.967834 
	C691.536499,967.475891 687.288879,967.180542 682.931885,966.951416 
	C679.609131,966.776733 676.272400,966.865662 672.941895,966.844421 
	C670.100647,966.826294 668.782349,965.567688 668.787415,962.564880 
	C668.839355,931.422302 668.839844,900.279480 668.773071,869.136902 
	C668.765503,865.582581 670.411621,864.493835 673.682495,864.587158 
	C678.175171,864.715271 682.683350,864.777893 687.168152,864.544739 
	C690.605164,864.366089 691.461426,865.949646 691.412048,869.010742 
	C691.291138,876.503113 691.320007,883.998474 691.361328,891.492249 
	C691.371094,893.267883 690.935547,895.187561 692.795349,897.211121 
	C703.735535,890.346924 715.553894,889.049744 727.694214,894.033264 
	C734.943726,897.009155 740.807556,901.844543 744.838440,908.731201 
	C753.460266,923.461365 751.241638,944.399048 739.407715,957.401733 
M726.332153,936.469727 
	C727.136414,932.684143 727.253052,928.849976 726.698547,925.047363 
	C725.888550,919.493103 723.260254,915.021240 718.219177,912.223450 
	C709.172729,907.202698 697.803345,910.511841 693.305542,919.453369 
	C688.173889,929.655151 691.819763,942.764221 701.064392,947.350891 
	C710.828369,952.195312 721.289978,947.949158 726.332153,936.469727 
z"/>
<path fill="#000000" opacity="1.000000" stroke="none" 
	d="
M442.019409,889.832642 
	C442.024750,892.613770 442.024750,894.924438 442.024750,898.382874 
	C453.199432,890.401611 464.572540,889.209961 476.566254,893.474060 
	C484.050598,896.135010 489.970917,900.798767 494.289062,907.413940 
	C503.670288,921.785522 502.343323,943.069824 491.389130,955.437378 
	C479.174530,969.227966 462.627075,971.194397 441.572693,961.123169 
	C441.418793,967.183594 437.248138,967.174500 432.910248,966.886353 
	C430.918182,966.754028 428.903900,966.343140 426.939362,966.514160 
	C418.210388,967.273804 419.659180,965.692078 419.647614,958.826599 
	C419.598358,929.529236 419.741425,900.230652 419.507111,870.935059 
	C419.465851,865.779968 421.118561,864.091980 426.075134,864.543579 
	C429.704712,864.874207 433.409851,864.773193 437.050171,864.479004 
	C440.861908,864.170898 442.089752,865.833008 442.029755,869.387512 
	C441.917480,876.043945 442.007996,882.703674 442.019409,889.832642 
M441.839966,933.615295 
	C444.713837,945.626038 453.172791,951.174622 464.639404,948.570374 
	C473.856812,946.476990 479.701447,935.463074 477.369751,924.580688 
	C475.118286,914.072693 466.011719,908.226501 455.230225,910.367432 
	C446.044037,912.191711 440.714966,920.970459 441.839966,933.615295 
z"/>
<path fill="#000000" opacity="1.000000" stroke="none" 
	d="
M650.998657,313.939697 
	C626.028992,313.936462 601.558899,313.938293 577.088867,313.923065 
	C574.926880,313.921692 572.750610,313.947418 570.605652,313.723694 
	C562.615662,312.890320 558.470581,307.367157 560.112244,299.452759 
	C561.089966,294.739349 562.318115,290.050415 563.829651,285.481476 
	C566.365723,277.815643 571.046509,274.664764 579.173706,274.665405 
	C609.969360,274.667908 640.765076,274.664703 671.560730,274.682159 
	C683.127991,274.688721 689.077087,282.690491 685.933655,293.991486 
	C685.265686,296.392914 684.578735,298.796234 683.742981,301.142517 
	C680.857178,309.244110 675.071838,313.542084 666.478271,313.838806 
	C661.489685,314.011017 656.491943,313.915314 650.998657,313.939697 
z"/>
<path fill="#000000" opacity="1.000000" stroke="none" 
	d="
M663.442627,573.905518 
	C665.101196,580.035339 666.873230,585.758728 668.036011,591.603333 
	C669.591125,599.419739 662.973267,606.161133 653.680603,606.236816 
	C637.209045,606.370850 620.735596,606.277649 604.262939,606.280396 
	C595.444214,606.281860 586.625488,606.306091 577.806824,606.281738 
	C569.449463,606.258667 563.287781,601.559448 560.999939,593.444946 
	C559.737000,588.965332 558.620056,584.444702 557.364563,579.962891 
	C554.911682,571.206665 559.282288,565.025757 568.369324,564.835876 
	C577.018005,564.655090 585.673035,564.772217 594.325317,564.769958 
	C611.962708,564.765259 629.601990,564.914795 647.236694,564.697449 
	C654.476990,564.608215 659.759033,567.294128 663.442627,573.905518 
z"/>
<path fill="#000000" opacity="1.000000" stroke="none" 
	d="
M621.488892,910.265625 
	C612.556458,908.199951 604.529419,909.847961 597.026794,913.998291 
	C594.127258,915.602234 592.438049,915.275879 591.164795,912.286133 
	C590.513367,910.756470 589.791565,909.255493 589.066284,907.758667 
	C585.126343,899.627808 585.072266,899.509094 593.342529,896.057983 
	C606.326416,890.639893 619.714966,889.167480 633.261963,893.491882 
	C645.826660,897.502808 652.839294,906.714539 653.197205,919.843445 
	C653.587280,934.146057 653.313843,948.465820 653.468811,962.776672 
	C653.501221,965.767090 652.122314,966.452148 649.527100,966.453613 
	C646.037659,966.455566 642.543091,966.624268 639.060242,966.860657 
	C635.054199,967.132629 631.430542,967.022888 631.886658,960.726807 
	C621.685120,968.542236 610.859131,969.044739 599.675171,966.286133 
	C589.397217,963.750977 582.878540,955.537048 582.711609,945.495300 
	C582.543701,935.400085 588.338989,927.871948 598.657349,924.538513 
	C606.782104,921.913635 615.152405,923.026733 623.427429,922.590027 
	C625.838867,922.462830 629.510132,924.134216 630.312012,920.631897 
	C631.030212,917.494995 629.057068,914.503601 626.323975,912.552856 
	C624.996460,911.605469 623.373169,911.072449 621.488892,910.265625 
M630.566589,937.980347 
	C626.179443,934.926392 610.564880,935.605530 606.922607,939.008667 
	C603.563904,942.146790 603.718079,946.985229 607.543640,949.827637 
	C612.626587,953.604248 618.164429,953.362122 623.608154,950.706055 
	C628.480164,948.328796 631.519531,944.642334 630.566589,937.980347 
z"/>
<path fill="#000000" opacity="1.000000" stroke="none" 
	d="
M364.486206,967.518555 
	C358.343231,968.007080 352.758209,967.397034 347.401062,965.297668 
	C338.743347,961.904724 333.717224,954.733948 333.627930,945.785339 
	C333.525970,935.566528 337.433899,929.524109 346.736267,925.532532 
	C351.561981,923.461792 356.634216,922.849548 361.847961,922.689392 
	C368.276428,922.491943 374.771210,923.309692 381.136993,921.916016 
	C380.744354,915.367126 378.377838,911.999878 372.630920,910.343628 
	C364.355316,907.958801 356.481934,909.725647 348.873108,913.215881 
	C347.384094,913.898926 345.958649,914.720581 343.742126,915.875000 
	C341.338440,911.133972 338.951324,906.641602 336.785889,902.044739 
	C335.960571,900.292786 337.383331,899.311096 338.782684,898.575623 
	C353.754120,890.706787 369.369049,888.447449 385.529175,894.093506 
	C398.869354,898.754333 403.641998,909.673035 404.103394,922.684326 
	C404.569427,935.827393 404.152039,949.000183 404.256714,962.158813 
	C404.282471,965.395691 403.063080,966.634888 399.834625,966.500610 
	C396.348633,966.355652 392.836670,966.454346 389.354309,966.702698 
	C385.456085,966.980713 381.903351,967.103088 383.003571,960.416199 
	C376.931427,964.593567 371.439697,967.565430 364.486206,967.518555 
M366.812988,936.276733 
	C364.822937,936.304138 362.856598,936.327026 360.941528,937.095154 
	C359.524811,937.663452 358.218933,938.327881 357.195557,939.455444 
	C354.232635,942.720520 354.755371,947.869019 358.591766,950.308533 
	C364.033600,953.768738 369.737946,953.128052 375.158325,950.262207 
	C379.177643,948.137085 381.752441,944.837097 381.700256,939.914001 
	C381.673889,937.426514 380.763580,936.217285 378.197327,936.264343 
	C374.713226,936.328186 371.226898,936.272583 366.812988,936.276733 
z"/>
<path fill="#000000" opacity="1.000000" stroke="none" 
	d="
M306.514282,913.760376 
	C306.413788,922.680176 306.280975,931.176270 306.393402,939.669067 
	C306.504944,948.093750 311.597107,951.687805 319.723846,948.843567 
	C323.028198,947.687073 324.672607,948.148682 325.586975,951.543396 
	C326.147186,953.623047 327.087280,955.599426 327.841431,957.627930 
	C329.881256,963.114929 329.393677,964.193542 323.944885,965.958130 
	C317.132111,968.164551 310.137787,968.347290 303.231567,966.892395 
	C291.110107,964.338867 284.274689,955.577576 283.937317,942.388123 
	C283.720123,933.897766 283.716614,925.395203 283.902374,916.904358 
	C283.988373,912.975098 282.960114,910.778259 278.613831,911.365356 
	C274.119171,911.972534 272.045044,910.137451 272.660034,905.487061 
	C272.833160,904.177673 272.677399,902.825378 272.678345,901.492737 
	C272.683411,894.253845 272.678070,894.115845 279.788483,893.808289 
	C282.837799,893.676453 283.928375,892.463257 283.825562,889.547546 
	C283.714172,886.387451 283.881226,883.218567 283.851105,880.054199 
	C283.826599,877.476501 284.788757,875.879822 287.589203,875.879517 
	C292.585999,875.878967 297.582855,875.887451 302.579620,875.874939 
	C305.319336,875.868103 306.451660,877.259521 306.387604,879.936829 
	C306.307892,883.266541 306.438110,886.601990 306.330566,889.930115 
	C306.240570,892.714417 307.468475,893.850647 310.211395,893.778137 
	C313.706787,893.685730 317.207825,893.717285 320.704620,893.786499 
	C326.564850,893.902466 325.075958,898.506653 324.767578,901.511536 
	C324.410034,904.996216 327.697418,910.558960 320.732635,911.286560 
	C317.600586,911.613708 314.407776,911.330811 311.243896,911.393066 
	C309.463867,911.428040 307.453125,911.046692 306.514282,913.760376 
z"/>
<path fill="#000000" opacity="1.000000" stroke="none" 
	d="
M563.890747,864.643433 
	C571.876099,864.690674 571.931091,864.690857 571.903625,872.111877 
	C571.792114,902.245178 571.609924,932.378235 571.565186,962.511536 
	C571.561035,965.330383 570.668701,966.437988 567.873230,966.409241 
	C563.042542,966.359558 558.208069,966.442078 553.378662,966.585144 
	C550.538574,966.669373 549.621338,965.337097 549.624695,962.640564 
	C549.663818,931.309082 549.662292,899.977478 549.603210,868.646057 
	C549.597290,865.524292 551.085938,864.576172 553.908813,864.651184 
	C557.072876,864.735352 560.241211,864.655029 563.890747,864.643433 
z"/>
<path fill="#000000" opacity="1.000000" stroke="none" 
	d="
M510.757538,947.998657 
	C510.752960,931.026672 510.886902,914.552368 510.654694,898.083252 
	C510.590332,893.519226 512.090271,891.690796 516.631165,891.940857 
	C520.612366,892.160095 524.616699,892.057800 528.607788,891.964417 
	C531.915405,891.887024 533.377258,893.164856 533.360718,896.667542 
	C533.257629,918.463806 533.249756,940.260986 533.344360,962.057251 
	C533.359009,965.431458 532.230164,967.003967 528.782654,966.917908 
	C524.292725,966.805725 519.798157,966.794922 515.306885,966.848572 
	C511.918915,966.888977 510.568878,965.377747 510.713165,961.973572 
	C510.903198,957.489258 510.758545,952.990662 510.757538,947.998657 
z"/>
<path fill="#000000" opacity="1.000000" stroke="none" 
	d="
M509.262573,875.444763 
	C507.761261,867.835999 509.373596,863.296143 514.317566,860.395203 
	C519.278931,857.483826 527.445557,858.048035 531.680725,861.594727 
	C536.937622,865.997131 537.381897,873.594421 532.690430,878.864075 
	C527.731873,884.433960 517.358093,884.737915 512.038147,879.390503 
	C511.005554,878.352539 510.291229,876.997803 509.262573,875.444763 
z"/>
</svg>